<?xml version="1.0" standalone="no"?>
<!DOCTYPE svg PUBLIC "-//W3C//DTD SVG 20010904//EN"
 "http://www.w3.org/TR/2001/REC-SVG-20010904/DTD/svg10.dtd">
<svg version="1.0" xmlns="http://www.w3.org/2000/svg"
 width="643.000000pt" height="643.000000pt" viewBox="0 0 643.000000 643.000000"
 preserveAspectRatio="xMidYMid meet">
<metadata>
Created by potrace 1.14, written by Peter Selinger 2001-2017
</metadata>
<g transform="translate(0.000000,643.000000) scale(0.100000,-0.100000)"
fill="#000000" stroke="none">
<path d="M2961 6420 c-1578 -133 -2819 -1370 -2951 -2945 -68 -811 181 -1624
696 -2270 117 -146 381 -409 524 -519 579 -449 1263 -686 1981 -686 831 0
1628 321 2231 899 808 773 1154 1917 911 3011 -84 380 -243 753 -461 1080
-134 202 -234 323 -417 505 -503 504 -1143 816 -1865 910 -148 19 -502 27
-649 15z m-1081 -2805 l0 -555 320 0 320 0 0 -130 0 -130 -455 0 -455 0 0 685
0 685 135 0 135 0 0 -555z m1132 -290 l3 -285 28 -27 c22 -23 36 -28 75 -28
57 0 92 20 128 74 44 68 54 127 54 349 l0 202 130 0 130 0 0 -405 0 -405 -119
0 -118 0 -7 60 -7 60 -27 -32 c-42 -51 -62 -67 -122 -96 -47 -23 -68 -27 -145
-27 -105 0 -151 19 -207 85 -55 64 -58 85 -58 439 l0 321 130 0 129 0 3 -285z
m1110 170 l86 -116 67 116 67 115 130 0 c101 0 128 -3 122 -12 -5 -7 -58 -83
-120 -169 -61 -85 -119 -167 -128 -182 l-18 -26 156 -205 c86 -112 156 -207
156 -210 0 -3 -69 -6 -153 -6 l-154 0 -92 120 -92 121 -82 -118 -82 -118 -133
-3 -132 -3 126 173 c70 95 138 187 151 204 l23 31 -150 196 c-82 108 -150 199
-150 202 0 3 71 5 158 5 l158 0 86 -115z"/>
</g>
</svg>
